<svg xmlns="http://www.w3.org/2000/svg" width="1440" height="760" viewBox="0 0 1440 760" role="img" aria-label="Abstract digital learning pattern">
  <rect width="1440" height="760" fill="#fffaf7"/>
  <g fill="none" stroke="#d8c8bd" stroke-width="1" opacity=".55">
    <path d="M0 120h1440M0 240h1440M0 360h1440M0 480h1440M0 600h1440"/>
    <path d="M160 0v760M320 0v760M480 0v760M640 0v760M800 0v760M960 0v760M1120 0v760M1280 0v760"/>
  </g>
  <g opacity=".9">
    <rect x="860" y="150" width="260" height="156" rx="18" fill="#ffffff" stroke="#eadfd8"/>
    <rect x="895" y="188" width="190" height="16" rx="8" fill="#ff914d" opacity=".75"/>
    <rect x="895" y="224" width="118" height="14" rx="7" fill="#8a9aa7" opacity=".42"/>
    <rect x="895" y="254" width="156" height="14" rx="7" fill="#8a9aa7" opacity=".32"/>
  </g>
  <g fill="#ff914d" opacity=".18">
    <circle cx="1190" cy="155" r="58"/>
    <circle cx="1090" cy="520" r="86"/>
    <circle cx="260" cy="650" r="72"/>
  </g>
  <g stroke="#8a9aa7" stroke-width="3" fill="none" opacity=".28">
    <path d="M210 260c130-90 248-84 354 18s212 104 318 6"/>
    <path d="M250 310l48-42 52 42 52-42 52 42"/>
  </g>
</svg>
